<svg xmlns="http://www.w3.org/2000/svg" width="32" height="32" viewBox="0 0 32 32">
  <circle cx="16" cy="16" r="15" fill="#6D28D9" stroke="#4C1D95" stroke-width="1"/>
  <g transform="translate(16, 17)">
    <path d="M-1 -6 C-1 -6 -4 -7.5 -8 -7 C-8 -7 -8 3 -8 3 C-4 2.5 -1 4 -1 4 Z" fill="#EDE9FE" stroke="#4C1D95" stroke-width="0.6" stroke-linejoin="round"/>
    <path d="M1 -6 C1 -6 4 -7.5 8 -7 C8 -7 8 3 8 3 C4 2.5 1 4 1 4 Z" fill="#EDE9FE" stroke="#4C1D95" stroke-width="0.6" stroke-linejoin="round"/>
    <line x1="0" y1="-6" x2="0" y2="4" stroke="#4C1D95" stroke-width="0.6"/>
    <line x1="-6.5" y1="-4.5" x2="-2.5" y2="-4" stroke="#7C3AED" stroke-width="0.5" stroke-linecap="round"/>
    <line x1="-6.5" y1="-2.5" x2="-2.5" y2="-2" stroke="#7C3AED" stroke-width="0.5" stroke-linecap="round"/>
    <line x1="-6.5" y1="-0.5" x2="-2.5" y2="0" stroke="#7C3AED" stroke-width="0.5" stroke-linecap="round"/>
    <line x1="6.5" y1="-4.5" x2="2.5" y2="-4" stroke="#7C3AED" stroke-width="0.5" stroke-linecap="round"/>
    <line x1="6.5" y1="-2.5" x2="2.5" y2="-2" stroke="#7C3AED" stroke-width="0.5" stroke-linecap="round"/>
    <line x1="6.5" y1="-0.5" x2="2.5" y2="0" stroke="#7C3AED" stroke-width="0.5" stroke-linecap="round"/>
  </g>
</svg>
